<?xml version="1.0" encoding="UTF-8" standalone="no"?><!DOCTYPE svg PUBLIC "-//W3C//DTD SVG 1.1//EN" "http://www.w3.org/Graphics/SVG/1.1/DTD/svg11.dtd"><svg width="100%" height="100%" viewBox="0 0 1000 300" version="1.1" xmlns="http://www.w3.org/2000/svg" xmlns:xlink="http://www.w3.org/1999/xlink" xml:space="preserve" xmlns:serif="http://www.serif.com/" style="fill-rule:evenodd;clip-rule:evenodd;stroke-linejoin:round;stroke-miterlimit:2;"><rect x="0" y="0" width="1000" height="300" style="fill:#161616;"/><g><path d="M400.295,187.922l0,-3.639c0.66,0.554 1.376,0.969 2.149,1.245c0.774,0.277 1.554,0.415 2.343,0.415c0.462,0 0.866,-0.041 1.211,-0.125c0.345,-0.083 0.633,-0.199 0.864,-0.347c0.231,-0.147 0.404,-0.322 0.518,-0.523c0.113,-0.201 0.17,-0.418 0.17,-0.653c0,-0.319 -0.091,-0.603 -0.273,-0.853c-0.182,-0.25 -0.43,-0.482 -0.745,-0.694c-0.314,-0.212 -0.688,-0.417 -1.12,-0.614c-0.432,-0.197 -0.898,-0.398 -1.398,-0.603c-1.274,-0.53 -2.224,-1.179 -2.849,-1.944c-0.625,-0.766 -0.938,-1.691 -0.938,-2.775c-0,-0.849 0.17,-1.579 0.512,-2.189c0.341,-0.61 0.805,-1.112 1.393,-1.507c0.587,-0.394 1.268,-0.684 2.041,-0.87c0.773,-0.185 1.592,-0.278 2.456,-0.278c0.849,-0 1.601,0.051 2.257,0.153c0.656,0.103 1.261,0.26 1.814,0.472l-0,3.4c-0.273,-0.189 -0.57,-0.356 -0.893,-0.5c-0.322,-0.144 -0.654,-0.263 -0.995,-0.358c-0.341,-0.095 -0.68,-0.165 -1.017,-0.211c-0.338,-0.045 -0.658,-0.068 -0.961,-0.068c-0.417,0 -0.796,0.04 -1.137,0.12c-0.342,0.079 -0.63,0.191 -0.865,0.335c-0.235,0.144 -0.417,0.317 -0.546,0.517c-0.128,0.201 -0.193,0.427 -0.193,0.677c0,0.273 0.072,0.517 0.216,0.734c0.144,0.216 0.349,0.42 0.614,0.614c0.266,0.193 0.588,0.382 0.967,0.568c0.379,0.186 0.807,0.377 1.285,0.574c0.652,0.273 1.237,0.563 1.757,0.87c0.519,0.307 0.964,0.654 1.336,1.041c0.371,0.386 0.656,0.828 0.853,1.325c0.197,0.496 0.295,1.074 0.295,1.734c0,0.909 -0.172,1.673 -0.517,2.291c-0.345,0.618 -0.813,1.118 -1.404,1.501c-0.592,0.383 -1.28,0.658 -2.064,0.825c-0.785,0.166 -1.613,0.25 -2.485,0.25c-0.895,-0 -1.745,-0.076 -2.553,-0.228c-0.807,-0.151 -1.507,-0.379 -2.098,-0.682Z" style="fill:#fff;fill-rule:nonzero;"/><path d="M419.297,188.832c-1.941,-0 -3.467,-0.544 -4.577,-1.632c-1.111,-1.088 -1.666,-2.564 -1.666,-4.429c-0,-1.926 0.576,-3.433 1.728,-4.52c1.153,-1.088 2.711,-1.632 4.674,-1.632c1.933,-0 3.449,0.544 4.549,1.632c1.099,1.087 1.648,2.526 1.648,4.315c0,1.933 -0.566,3.461 -1.7,4.583c-1.133,1.122 -2.685,1.683 -4.656,1.683Zm0.091,-9.461c-0.849,-0 -1.509,0.292 -1.979,0.875c-0.47,0.584 -0.705,1.41 -0.705,2.479c0,2.237 0.902,3.355 2.707,3.355c1.72,-0 2.581,-1.149 2.581,-3.446c-0,-2.175 -0.868,-3.263 -2.604,-3.263Z" style="fill:#fff;fill-rule:nonzero;"/><path d="M435.581,174.06c-0.463,-0.182 -0.906,-0.273 -1.331,-0.273c-1.152,0 -1.728,0.626 -1.728,1.877l-0,1.239l2.661,0l-0,2.65l-2.661,-0l-0,8.994l-3.582,0l-0,-8.994l-1.956,-0l-0,-2.65l1.956,0l-0,-1.444c-0,-1.327 0.432,-2.396 1.296,-3.207c0.864,-0.811 2.039,-1.217 3.525,-1.217c0.728,0 1.335,0.076 1.82,0.228l-0,2.797Z" style="fill:#fff;fill-rule:nonzero;"/><path d="M443.95,188.411c-0.531,0.28 -1.33,0.421 -2.399,0.421c-2.532,-0 -3.798,-1.316 -3.798,-3.946l-0,-5.333l-1.888,-0l0,-2.65l1.888,0l-0,-2.513l3.582,-1.023l-0,3.536l2.615,0l0,2.65l-2.615,-0l-0,4.707c-0,1.213 0.481,1.82 1.444,1.82c0.379,-0 0.769,-0.11 1.171,-0.33l0,2.661Z" style="fill:#fff;fill-rule:nonzero;"/><path d="M462.838,176.903l-3.354,11.644l-3.776,0l-1.717,-6.822c-0.114,-0.455 -0.178,-0.952 -0.193,-1.49l-0.068,-0c-0.054,0.591 -0.129,1.073 -0.228,1.444l-1.842,6.868l-3.73,0l-3.286,-11.644l3.661,0l1.604,7.596c0.076,0.357 0.132,0.789 0.17,1.297l0.069,-0c0.037,-0.531 0.106,-0.978 0.204,-1.342l2.002,-7.551l3.422,0l1.797,7.596c0.046,0.19 0.099,0.629 0.159,1.319l0.08,0c0.038,-0.439 0.098,-0.879 0.182,-1.319l1.512,-7.596l3.332,0Z" style="fill:#fff;fill-rule:nonzero;"/><path d="M474.232,188.547l-3.4,0l0,-1.671l-0.045,-0c-0.781,1.304 -1.937,1.956 -3.469,1.956c-1.129,-0 -2.018,-0.321 -2.666,-0.961c-0.648,-0.641 -0.972,-1.495 -0.972,-2.564c-0,-2.26 1.338,-3.563 4.014,-3.912l3.161,-0.421c-0,-1.274 -0.69,-1.91 -2.07,-1.91c-1.387,-0 -2.706,0.413 -3.957,1.239l0,-2.706c0.5,-0.258 1.185,-0.485 2.053,-0.683c0.868,-0.197 1.658,-0.295 2.371,-0.295c3.32,-0 4.98,1.656 4.98,4.969l0,6.959Zm-3.377,-4.73l-0,-0.785l-2.115,0.273c-1.168,0.152 -1.751,0.679 -1.751,1.581c-0,0.409 0.142,0.745 0.426,1.006c0.284,0.262 0.669,0.393 1.154,0.393c0.675,-0 1.225,-0.234 1.649,-0.7c0.425,-0.466 0.637,-1.055 0.637,-1.768Z" style="fill:#fff;fill-rule:nonzero;"/><path d="M484.671,180.144c-0.432,-0.235 -0.936,-0.353 -1.512,-0.353c-0.781,0 -1.391,0.287 -1.831,0.859c-0.44,0.572 -0.659,1.351 -0.659,2.337l-0,5.56l-3.594,0l0,-11.644l3.594,0l-0,2.161l0.045,-0c0.569,-1.577 1.592,-2.366 3.07,-2.366c0.379,0 0.675,0.046 0.887,0.137l0,3.309Z" style="fill:#fff;fill-rule:nonzero;"/><path d="M496.805,183.749l-7.597,-0c0.122,1.69 1.187,2.536 3.196,2.536c1.281,-0 2.407,-0.304 3.377,-0.91l0,2.593c-1.076,0.576 -2.475,0.864 -4.196,0.864c-1.88,-0 -3.339,-0.521 -4.378,-1.564c-1.038,-1.042 -1.558,-2.496 -1.558,-4.361c0,-1.933 0.561,-3.464 1.683,-4.594c1.122,-1.129 2.502,-1.694 4.139,-1.694c1.699,-0 3.012,0.504 3.941,1.512c0.928,1.008 1.393,2.377 1.393,4.105l-0,1.513Zm-3.332,-2.206c-0,-1.668 -0.675,-2.502 -2.024,-2.502c-0.576,-0 -1.075,0.239 -1.496,0.716c-0.42,0.478 -0.676,1.073 -0.767,1.786l4.287,-0Z" style="fill:#fff;fill-rule:nonzero;"/><path d="M515.499,188.547l-9.779,0l-0,-16.306l9.404,-0l0,2.99l-5.731,0l-0,3.628l5.333,-0l0,2.979l-5.333,0l-0,3.73l6.106,0l0,2.979Z" style="fill:#fff;fill-rule:nonzero;"/><path d="M529.009,188.547l-3.582,0l-0,-6.47c-0,-1.804 -0.645,-2.706 -1.934,-2.706c-0.621,-0 -1.133,0.238 -1.535,0.716c-0.402,0.478 -0.602,1.084 -0.602,1.82l-0,6.64l-3.594,0l0,-11.644l3.594,0l-0,1.842l0.045,0c0.857,-1.417 2.104,-2.126 3.741,-2.126c2.578,-0 3.867,1.599 3.867,4.799l-0,7.129Z" style="fill:#fff;fill-rule:nonzero;"/><path d="M543.268,187.217c0,2.161 -0.625,3.834 -1.876,5.02c-1.251,1.187 -3.063,1.78 -5.435,1.78c-1.57,0 -2.813,-0.224 -3.73,-0.671l-0,-3.025c1.197,0.698 2.407,1.047 3.627,1.047c1.213,-0 2.153,-0.321 2.82,-0.961c0.667,-0.641 1.001,-1.511 1.001,-2.61l-0,-0.921l-0.045,-0c-0.819,1.304 -2.028,1.956 -3.628,1.956c-1.486,-0 -2.665,-0.523 -3.537,-1.57c-0.871,-1.046 -1.307,-2.448 -1.307,-4.207c-0,-1.971 0.485,-3.536 1.455,-4.696c0.971,-1.16 2.248,-1.74 3.833,-1.74c1.417,-0 2.478,0.546 3.184,1.637l0.045,0l-0,-1.353l3.593,0l0,10.314Zm-3.548,-4.264l0,-0.921c0,-0.736 -0.217,-1.363 -0.653,-1.882c-0.436,-0.52 -1.003,-0.779 -1.7,-0.779c-0.796,-0 -1.422,0.311 -1.877,0.932c-0.455,0.622 -0.682,1.497 -0.682,2.627c0,0.97 0.216,1.738 0.648,2.303c0.432,0.564 1.024,0.847 1.774,0.847c0.743,-0 1.344,-0.286 1.803,-0.859c0.458,-0.572 0.687,-1.328 0.687,-2.268Z" style="fill:#fff;fill-rule:nonzero;"/><path d="M548.09,175.061c-0.607,-0 -1.103,-0.18 -1.49,-0.54c-0.386,-0.36 -0.58,-0.802 -0.58,-1.325c0,-0.538 0.194,-0.978 0.58,-1.319c0.387,-0.341 0.883,-0.512 1.49,-0.512c0.614,0 1.112,0.171 1.495,0.512c0.383,0.341 0.574,0.781 0.574,1.319c0,0.546 -0.191,0.993 -0.574,1.342c-0.383,0.349 -0.881,0.523 -1.495,0.523Zm1.774,13.486l-3.594,0l0,-11.644l3.594,0l-0,11.644Z" style="fill:#fff;fill-rule:nonzero;"/><path d="M564.135,188.547l-3.582,0l-0,-6.47c-0,-1.804 -0.644,-2.706 -1.933,-2.706c-0.622,-0 -1.134,0.238 -1.535,0.716c-0.402,0.478 -0.603,1.084 -0.603,1.82l0,6.64l-3.593,0l-0,-11.644l3.593,0l0,1.842l0.045,0c0.857,-1.417 2.104,-2.126 3.742,-2.126c2.577,-0 3.866,1.599 3.866,4.799l-0,7.129Z" style="fill:#fff;fill-rule:nonzero;"/><path d="M577.44,183.749l-7.597,-0c0.122,1.69 1.187,2.536 3.196,2.536c1.281,-0 2.407,-0.304 3.377,-0.91l0,2.593c-1.076,0.576 -2.475,0.864 -4.196,0.864c-1.88,-0 -3.339,-0.521 -4.378,-1.564c-1.039,-1.042 -1.558,-2.496 -1.558,-4.361c0,-1.933 0.561,-3.464 1.683,-4.594c1.122,-1.129 2.502,-1.694 4.139,-1.694c1.699,-0 3.012,0.504 3.941,1.512c0.928,1.008 1.393,2.377 1.393,4.105l-0,1.513Zm-3.332,-2.206c-0,-1.668 -0.675,-2.502 -2.024,-2.502c-0.577,-0 -1.075,0.239 -1.496,0.716c-0.42,0.478 -0.676,1.073 -0.767,1.786l4.287,-0Z" style="fill:#fff;fill-rule:nonzero;"/><path d="M590.039,183.749l-7.596,-0c0.121,1.69 1.186,2.536 3.195,2.536c1.282,-0 2.407,-0.304 3.378,-0.91l-0,2.593c-1.077,0.576 -2.475,0.864 -4.196,0.864c-1.88,-0 -3.34,-0.521 -4.378,-1.564c-1.039,-1.042 -1.558,-2.496 -1.558,-4.361c-0,-1.933 0.561,-3.464 1.683,-4.594c1.122,-1.129 2.501,-1.694 4.139,-1.694c1.698,-0 3.011,0.504 3.94,1.512c0.929,1.008 1.393,2.377 1.393,4.105l0,1.513Zm-3.332,-2.206c0,-1.668 -0.674,-2.502 -2.024,-2.502c-0.576,-0 -1.074,0.239 -1.495,0.716c-0.421,0.478 -0.677,1.073 -0.768,1.786l4.287,-0Z" style="fill:#fff;fill-rule:nonzero;"/><path d="M599.773,180.144c-0.432,-0.235 -0.936,-0.353 -1.512,-0.353c-0.781,0 -1.391,0.287 -1.831,0.859c-0.44,0.572 -0.66,1.351 -0.66,2.337l0,5.56l-3.593,0l-0,-11.644l3.593,0l0,2.161l0.046,-0c0.568,-1.577 1.592,-2.366 3.07,-2.366c0.379,0 0.675,0.046 0.887,0.137l0,3.309Z" style="fill:#fff;fill-rule:nonzero;"/><path d="M319.96,155.38l-10.384,0.002l-0.005,-27.93c-0.001,-3.016 0.129,-6.347 0.389,-9.993l-0.261,-0c-0.542,2.865 -1.03,4.926 -1.464,6.185l-10.931,31.74l-8.594,0.002l-11.139,-31.411c-0.304,-0.846 -0.792,-3.016 -1.466,-6.51l-0.293,-0c0.283,4.6 0.425,8.637 0.426,12.109l0.004,25.814l-9.472,0.002l-0.009,-46.68l15.398,-0.003l9.542,27.668c0.76,2.213 1.314,4.437 1.662,6.673l0.195,-0c0.585,-2.583 1.203,-4.829 1.854,-6.739l9.533,-27.606l15.007,-0.003l0.008,46.68Z" style="fill:#ff3016;fill-rule:nonzero;"/><path d="M361.295,122.04l-13.535,36.005c-3.254,8.659 -8.158,12.989 -14.712,12.99c-2.495,0.001 -4.546,-0.281 -6.152,-0.845l-0.001,-8.203c1.367,0.803 2.853,1.204 4.459,1.204c2.648,-0.001 4.492,-1.249 5.534,-3.745l1.757,-4.134l-13.548,-33.266l11.393,-0.002l6.221,20.279c0.391,1.258 0.695,2.745 0.913,4.459l0.13,0c0.195,-1.258 0.553,-2.723 1.073,-4.395l6.279,-20.346l10.189,-0.001Z" style="fill:#ff3016;fill-rule:nonzero;"/><path d="M375.721,155.37l-10.286,0.002l-0.009,-49.349l10.287,-0.002l0.008,49.349Z" style="fill:#ff3016;fill-rule:nonzero;"/><path d="M414.326,141.626l-21.745,0.004c0.348,4.84 3.398,7.259 9.148,7.258c3.668,-0.001 6.891,-0.869 9.668,-2.606l0.001,7.422c-3.081,1.65 -7.085,2.475 -12.011,2.476c-5.382,0.001 -9.56,-1.49 -12.533,-4.474c-2.974,-2.983 -4.461,-7.144 -4.462,-12.483c-0.001,-5.534 1.604,-9.918 4.815,-13.152c3.211,-3.234 7.161,-4.851 11.848,-4.852c4.861,-0.001 8.621,1.442 11.28,4.327c2.659,2.886 3.989,6.803 3.99,11.751l0.001,4.329Zm-9.539,-6.313c-0.001,-4.774 -1.933,-7.161 -5.796,-7.16c-1.649,-0 -3.076,0.684 -4.28,2.051c-1.204,1.368 -1.936,3.071 -2.196,5.111l12.272,-0.002Z" style="fill:#ff3016;fill-rule:nonzero;"/><path d="M418.267,154.484l-0.002,-8.333c1.693,1.019 3.381,1.778 5.063,2.277c1.682,0.499 3.271,0.748 4.769,0.748c1.823,-0 3.26,-0.25 4.313,-0.749c1.052,-0.5 1.578,-1.259 1.578,-2.279c-0,-0.651 -0.239,-1.194 -0.716,-1.628c-0.478,-0.434 -1.091,-0.813 -1.84,-1.139c-0.748,-0.325 -1.568,-0.618 -2.458,-0.878c-0.889,-0.26 -1.747,-0.553 -2.571,-0.879c-1.324,-0.499 -2.491,-1.035 -3.5,-1.61c-1.009,-0.575 -1.856,-1.242 -2.539,-2.002c-0.684,-0.759 -1.205,-1.638 -1.563,-2.636c-0.359,-0.998 -0.538,-2.181 -0.538,-3.548c-0,-1.867 0.406,-3.473 1.22,-4.818c0.813,-1.346 1.898,-2.447 3.254,-3.305c1.357,-0.857 2.908,-1.487 4.655,-1.889c1.747,-0.402 3.564,-0.603 5.452,-0.603c1.476,-0 2.973,0.113 4.493,0.341c1.519,0.228 3.016,0.558 4.492,0.992l0.001,7.943c-1.302,-0.76 -2.696,-1.329 -4.183,-1.708c-1.486,-0.38 -2.946,-0.57 -4.378,-0.569c-0.673,-0 -1.308,0.06 -1.904,0.179c-0.597,0.12 -1.123,0.293 -1.579,0.521c-0.456,0.228 -0.814,0.521 -1.074,0.879c-0.261,0.358 -0.391,0.765 -0.391,1.221c0,0.608 0.196,1.128 0.587,1.562c0.39,0.434 0.9,0.809 1.53,1.123c0.629,0.315 1.329,0.597 2.099,0.846c0.771,0.25 1.536,0.504 2.296,0.765c1.367,0.477 2.604,0.998 3.711,1.562c1.107,0.564 2.056,1.225 2.848,1.985c0.793,0.759 1.4,1.649 1.824,2.669c0.423,1.02 0.635,2.235 0.635,3.645c0.001,1.975 -0.428,3.663 -1.285,5.063c-0.857,1.399 -1.996,2.539 -3.417,3.418c-1.421,0.879 -3.06,1.52 -4.915,1.922c-1.855,0.401 -3.781,0.602 -5.778,0.603c-3.668,0 -7.064,-0.563 -10.189,-1.691Z" style="fill:#ff3016;fill-rule:nonzero;"/><path d="M469.179,155.354l-0.009,-46.68l16.537,-0.003c16.58,-0.003 24.871,7.58 24.874,22.75c0.001,7.27 -2.261,13.075 -6.784,17.416c-4.524,4.341 -10.552,6.512 -18.082,6.514l-16.536,0.003Zm10.507,-38.121l0.005,29.59l5.209,-0.001c4.557,-0 8.132,-1.368 10.725,-4.103c2.593,-2.735 3.889,-6.457 3.888,-11.166c-0.001,-4.449 -1.287,-7.948 -3.859,-10.498c-2.572,-2.549 -6.181,-3.823 -10.825,-3.823l-5.143,0.001Z" style="fill:#ff3016;fill-rule:nonzero;"/><path d="M547.269,141.603l-21.745,0.004c0.348,4.839 3.397,7.258 9.148,7.257c3.668,-0 6.89,-0.869 9.668,-2.606l0.001,7.422c-3.081,1.65 -7.085,2.476 -12.011,2.476c-5.382,0.001 -9.56,-1.49 -12.534,-4.473c-2.973,-2.984 -4.461,-7.145 -4.461,-12.483c-0.001,-5.534 1.604,-9.918 4.815,-13.152c3.211,-3.234 7.161,-4.852 11.848,-4.852c4.861,-0.001 8.621,1.441 11.28,4.327c2.659,2.886 3.989,6.803 3.99,11.751l0.001,4.329Zm-9.539,-6.313c-0.001,-4.775 -1.933,-7.162 -5.796,-7.161c-1.649,0 -3.076,0.684 -4.28,2.052c-1.204,1.367 -1.936,3.071 -2.196,5.111l12.272,-0.002Z" style="fill:#ff3016;fill-rule:nonzero;"/><path d="M551.21,154.46l-0.002,-8.333c1.693,1.02 3.38,1.779 5.062,2.278c1.682,0.499 3.272,0.748 4.769,0.748c1.823,-0.001 3.261,-0.251 4.313,-0.75c1.053,-0.499 1.579,-1.259 1.579,-2.279c-0,-0.651 -0.239,-1.193 -0.717,-1.627c-0.477,-0.434 -1.09,-0.814 -1.839,-1.139c-0.749,-0.326 -1.568,-0.618 -2.458,-0.879c-0.89,-0.26 -1.747,-0.553 -2.572,-0.878c-1.324,-0.499 -2.49,-1.036 -3.499,-1.611c-1.009,-0.575 -1.856,-1.242 -2.54,-2.001c-0.683,-0.76 -1.204,-1.639 -1.563,-2.637c-0.358,-0.998 -0.537,-2.181 -0.537,-3.548c-0.001,-1.866 0.406,-3.472 1.219,-4.818c0.814,-1.345 1.899,-2.447 3.255,-3.304c1.356,-0.858 2.908,-1.488 4.655,-1.889c1.747,-0.402 3.564,-0.603 5.452,-0.603c1.476,-0.001 2.973,0.113 4.492,0.341c1.519,0.227 3.017,0.558 4.493,0.992l0.001,7.942c-1.302,-0.759 -2.697,-1.328 -4.183,-1.708c-1.487,-0.379 -2.946,-0.569 -4.379,-0.569c-0.672,0 -1.307,0.06 -1.904,0.18c-0.597,0.119 -1.123,0.293 -1.578,0.521c-0.456,0.228 -0.814,0.521 -1.075,0.879c-0.26,0.358 -0.39,0.765 -0.39,1.22c0,0.608 0.196,1.129 0.586,1.563c0.391,0.434 0.901,0.808 1.53,1.123c0.63,0.314 1.33,0.596 2.1,0.846c0.771,0.249 1.536,0.504 2.295,0.764c1.368,0.477 2.605,0.998 3.711,1.562c1.107,0.564 2.057,1.226 2.849,1.985c0.792,0.76 1.4,1.649 1.823,2.669c0.424,1.02 0.636,2.235 0.636,3.646c0,1.975 -0.428,3.662 -1.285,5.062c-0.857,1.4 -1.996,2.539 -3.417,3.419c-1.422,0.879 -3.06,1.519 -4.915,1.921c-1.856,0.402 -3.782,0.603 -5.778,0.603c-3.668,0.001 -7.064,-0.563 -10.189,-1.691Z" style="fill:#ff3016;fill-rule:nonzero;"/><path d="M593.007,155.332l-10.287,0.002l-0.009,-49.349l10.287,-0.002l0.009,49.349Z" style="fill:#ff3016;fill-rule:nonzero;"/><path d="M606.867,116.723c-1.736,-0 -3.158,-0.515 -4.265,-1.546c-1.107,-1.03 -1.66,-2.294 -1.66,-3.792c-0.001,-1.541 0.552,-2.799 1.659,-3.776c1.107,-0.977 2.528,-1.466 4.264,-1.466c1.758,-0 3.185,0.488 4.281,1.464c1.096,0.977 1.644,2.235 1.645,3.776c-0,1.563 -0.548,2.843 -1.644,3.841c-1.095,0.999 -2.522,1.498 -4.28,1.499Zm5.085,38.605l-10.286,0.002l-0.006,-33.333l10.286,-0.002l0.006,33.333Z" style="fill:#ff3016;fill-rule:nonzero;"/><path d="M631.027,151.451l-0.13,0l0.003,19.206l-10.286,0.002l-0.009,-48.665l10.286,-0.002l0.001,5.013l0.13,-0c2.539,-3.885 6.108,-5.828 10.709,-5.829c4.319,-0.001 7.655,1.48 10.011,4.442c2.355,2.961 3.533,6.992 3.534,12.092c0.001,5.556 -1.371,10.016 -4.116,13.38c-2.744,3.364 -6.395,5.046 -10.953,5.047c-4.014,0.001 -7.075,-1.561 -9.18,-4.686Zm-0.296,-13.671l0.001,2.669c0,2.3 0.608,4.177 1.824,5.631c1.215,1.454 2.811,2.181 4.785,2.18c2.344,-0 4.161,-0.907 5.452,-2.719c1.291,-1.812 1.936,-4.378 1.936,-7.699c-0.001,-5.859 -2.28,-8.788 -6.838,-8.788c-2.105,0.001 -3.824,0.799 -5.159,2.394c-1.334,1.595 -2.001,3.706 -2.001,6.332Z" style="fill:#ff3016;fill-rule:nonzero;"/><path d="M672.368,151.444l-0.13,0l0.003,19.206l-10.286,0.002l-0.009,-48.666l10.287,-0.002l0,5.013l0.131,0c2.538,-3.885 6.108,-5.827 10.708,-5.828c4.319,-0.001 7.656,1.48 10.011,4.441c2.355,2.962 3.533,6.993 3.534,12.093c0.001,5.555 -1.371,10.015 -4.116,13.379c-2.744,3.365 -6.395,5.047 -10.953,5.048c-4.014,0.001 -7.074,-1.561 -9.18,-4.686Zm-0.295,-13.672l0,2.67c0,2.3 0.608,4.177 1.824,5.631c1.215,1.453 2.811,2.18 4.785,2.18c2.344,-0.001 4.162,-0.907 5.452,-2.719c1.291,-1.812 1.937,-4.379 1.936,-7.699c-0.001,-5.859 -2.28,-8.789 -6.838,-8.788c-2.105,0 -3.824,0.798 -5.159,2.394c-1.334,1.595 -2.001,3.705 -2,6.331Z" style="fill:#ff3016;fill-rule:nonzero;"/><path d="M733.239,141.57l-21.745,0.004c0.348,4.839 3.397,7.258 9.148,7.257c3.668,-0 6.89,-0.869 9.668,-2.606l0.001,7.422c-3.081,1.65 -7.085,2.476 -12.011,2.476c-5.382,0.001 -9.56,-1.49 -12.534,-4.473c-2.973,-2.984 -4.46,-7.145 -4.461,-12.483c-0.001,-5.534 1.604,-9.918 4.815,-13.152c3.211,-3.234 7.161,-4.852 11.848,-4.852c4.861,-0.001 8.621,1.441 11.28,4.327c2.659,2.886 3.989,6.803 3.99,11.751l0.001,4.329Zm-9.539,-6.313c-0.001,-4.775 -1.933,-7.162 -5.796,-7.161c-1.649,0 -3.076,0.684 -4.28,2.052c-1.204,1.367 -1.936,3.071 -2.196,5.111l12.272,-0.002Z" style="fill:#ff3016;fill-rule:nonzero;"/></g></svg>